# xmcd
#
# Track frame offsets: 
#        150
#        13691
#        26720
#        38533
#        54107
#        75138
#        93365
#        114122
#        134362
#        151560
#        179116
#        192167
#        205951
#        218757
#        238971
#        260768
#        288569
#        302926
#        314123
#
# Disc length: 4424 seconds
#
# Revision: 0
# Processed by: cddbd v1.5.1PL2 Copyright (c) Steve Scherf et al.
# Submitted via: ExactAudioCopy v0.95a4
#
DISCID=05114613
DTITLE=Whiskeytown - Those Weren't the Days (Stranger's Almanac Promo)
DYEAR=1900
DGENRE=Country
TTITLE0=My Heart is Broken
TTITLE1=Things I Heard (aka Streets with Sirens)
TTITLE2=Luxury Liner
TTITLE3=Kiss and Make Up
TTITLE4=Further Down the Road (aka Indian Gown)
TTITLE5=Breathe (aka Believe)
TTITLE6=Ten Seconds to the End of the World
TTITLE7=The Rain Won't Help You When It's Over
TTITLE8=Ticket Time
TTITLE9=Wither, I'm a Flower
TTITLE10=Hipshake
TTITLE11=Here's to the Rest of the World
TTITLE12=Empty Baseball Park
TTITLE13=San Antone
TTITLE14=Factory Girl
TTITLE15=All You Can Feel
TTITLE16=New York Angel
TTITLE17=Only to Lose
TTITLE18=Set Your Fires
EXTD=
EXTT0=
EXTT1=
EXTT2=
EXTT3=
EXTT4=
EXTT5=
EXTT6=
EXTT7=
EXTT8=
EXTT9=
EXTT10=
EXTT11=
EXTT12=
EXTT13=
EXTT14=
EXTT15=
EXTT16=
EXTT17=
EXTT18=
PLAYORDER=
